<svg xmlns="http://www.w3.org/2000/svg" viewBox="0 0 980 580" width="980" height="580" role="img" aria-label="Chroma keying as a region on the Cb Cr plane"><rect x="0.5" y="0.5" width="979" height="579" rx="14" fill="#fbfcfe" stroke="#d9e0e8"/><text x="28.0" y="42.0" font-size="17" fill="#17212b" text-anchor="start" font-weight="650" font-family="ui-sans-serif,system-ui,-apple-system,Segoe UI,Roboto,Helvetica,Arial,sans-serif">Chroma keying is a shape drawn on the Cb/Cr plane</text><text x="28.0" y="63.0" font-size="12.5" fill="#5d6b7a" text-anchor="start" font-weight="400" font-family="ui-sans-serif,system-ui,-apple-system,Segoe UI,Roboto,Helvetica,Arial,sans-serif">Drop Y' and 'is this pixel screen or subject?' stops being a colour question and becomes plane geometry.</text><clipPath id="pl"><rect x="44" y="108" width="400" height="400"/></clipPath><g transform="translate(44,108) scale(13.3333)" shape-rendering="crispEdges"><rect x="0" y="0" width="30" height="1" fill="#eef1f5"/><rect x="0" y="1" width="30" height="1" fill="#eef1f5"/><rect x="0" y="2" width="30" height="1" fill="#eef1f5"/><rect x="0" y="3" width="30" height="1" fill="#eef1f5"/><rect x="0" y="4" width="30" height="1" fill="#eef1f5"/><rect x="0" y="5" width="7" height="1" fill="#eef1f5"/><rect x="7" y="5" width="1" height="1" fill="#ff6609"/><rect x="8" y="5" width="1" height="1" fill="#ff6419"/><rect x="9" y="5" width="1" height="1" fill="#ff6229"/><rect x="10" y="5" width="1" height="1" fill="#ff6139"/><rect x="11" y="5" width="1" height="1" fill="#ff5f48"/><rect x="12" y="5" width="1" height="1" fill="#ff5e58"/><rect x="13" y="5" width="1" height="1" fill="#ff5c68"/><rect x="14" y="5" width="1" height="1" fill="#ff5a78"/><rect x="15" y="5" width="1" height="1" fill="#ff5987"/><rect x="16" y="5" width="1" height="1" fill="#ff5797"/><rect x="17" y="5" width="1" height="1" fill="#ff56a7"/><rect x="18" y="5" width="1" height="1" fill="#ff54b7"/><rect x="19" y="5" width="1" height="1" fill="#ff53c6"/><rect x="20" y="5" width="1" height="1" fill="#ff51d6"/><rect x="21" y="5" width="1" height="1" fill="#ff4fe6"/><rect x="22" y="5" width="1" height="1" fill="#ff4ef6"/><rect x="23" y="5" width="7" height="1" fill="#eef1f5"/><rect x="0" y="6" width="7" height="1" fill="#eef1f5"/><rect x="7" y="6" width="1" height="1" fill="#f16a09"/><rect x="8" y="6" width="1" height="1" fill="#f16819"/><rect x="9" y="6" width="1" height="1" fill="#f16629"/><rect x="10" y="6" width="1" height="1" fill="#f16539"/><rect x="11" y="6" width="1" height="1" fill="#f16348"/><rect x="12" y="6" width="1" height="1" fill="#f16258"/><rect x="13" y="6" width="1" height="1" fill="#f16068"/><rect x="14" y="6" width="1" height="1" fill="#f15e78"/><rect x="15" y="6" width="1" height="1" fill="#f15d87"/><rect x="16" y="6" width="1" height="1" fill="#f15b97"/><rect x="17" y="6" width="1" height="1" fill="#f15aa7"/><rect x="18" y="6" width="1" height="1" fill="#f158b7"/><rect x="19" y="6" width="1" height="1" fill="#f157c6"/><rect x="20" y="6" width="1" height="1" fill="#f155d6"/><rect x="21" y="6" width="1" height="1" fill="#f153e6"/><rect x="22" y="6" width="1" height="1" fill="#f152f6"/><rect x="23" y="6" width="7" height="1" fill="#eef1f5"/><rect x="0" y="7" width="7" height="1" fill="#eef1f5"/><rect x="7" y="7" width="1" height="1" fill="#e46e09"/><rect x="8" y="7" width="1" height="1" fill="#e46c19"/><rect x="9" y="7" width="1" height="1" fill="#e46a29"/><rect x="10" y="7" width="1" height="1" fill="#e46939"/><rect x="11" y="7" width="1" height="1" fill="#e46748"/><rect x="12" y="7" width="1" height="1" fill="#e46658"/><rect x="13" y="7" width="1" height="1" fill="#e46468"/><rect x="14" y="7" width="1" height="1" fill="#e46278"/><rect x="15" y="7" width="1" height="1" fill="#e46187"/><rect x="16" y="7" width="1" height="1" fill="#e45f97"/><rect x="17" y="7" width="1" height="1" fill="#e45ea7"/><rect x="18" y="7" width="1" height="1" fill="#e45cb7"/><rect x="19" y="7" width="1" height="1" fill="#e45ac6"/><rect x="20" y="7" width="1" height="1" fill="#e459d6"/><rect x="21" y="7" width="1" height="1" fill="#e457e6"/><rect x="22" y="7" width="1" height="1" fill="#e456f6"/><rect x="23" y="7" width="7" height="1" fill="#eef1f5"/><rect x="0" y="8" width="7" height="1" fill="#eef1f5"/><rect x="7" y="8" width="1" height="1" fill="#d77209"/><rect x="8" y="8" width="1" height="1" fill="#d77019"/><rect x="9" y="8" width="1" height="1" fill="#d76e29"/><rect x="10" y="8" width="1" height="1" fill="#d76d39"/><rect x="11" y="8" width="1" height="1" fill="#d76b48"/><rect x="12" y="8" width="1" height="1" fill="#d76a58"/><rect x="13" y="8" width="1" height="1" fill="#d76868"/><rect x="14" y="8" width="1" height="1" fill="#d76678"/><rect x="15" y="8" width="1" height="1" fill="#d76587"/><rect x="16" y="8" width="1" height="1" fill="#d76397"/><rect x="17" y="8" width="1" height="1" fill="#d762a7"/><rect x="18" y="8" width="1" height="1" fill="#d760b7"/><rect x="19" y="8" width="1" height="1" fill="#d75ec6"/><rect x="20" y="8" width="1" height="1" fill="#d75dd6"/><rect x="21" y="8" width="1" height="1" fill="#d75be6"/><rect x="22" y="8" width="1" height="1" fill="#d75af6"/><rect x="23" y="8" width="7" height="1" fill="#eef1f5"/><rect x="0" y="9" width="7" height="1" fill="#eef1f5"/><rect x="7" y="9" width="1" height="1" fill="#c97609"/><rect x="8" y="9" width="1" height="1" fill="#c97419"/><rect x="9" y="9" width="1" height="1" fill="#c97229"/><rect x="10" y="9" width="1" height="1" fill="#c97139"/><rect x="11" y="9" width="1" height="1" fill="#c96f48"/><rect x="12" y="9" width="1" height="1" fill="#c96e58"/><rect x="13" y="9" width="1" height="1" fill="#c96c68"/><rect x="14" y="9" width="1" height="1" fill="#c96a78"/><rect x="15" y="9" width="1" height="1" fill="#c96987"/><rect x="16" y="9" width="1" height="1" fill="#c96797"/><rect x="17" y="9" width="1" height="1" fill="#c966a7"/><rect x="18" y="9" width="1" height="1" fill="#c964b7"/><rect x="19" y="9" width="1" height="1" fill="#c962c6"/><rect x="20" y="9" width="1" height="1" fill="#c961d6"/><rect x="21" y="9" width="1" height="1" fill="#c95fe6"/><rect x="22" y="9" width="1" height="1" fill="#c95ef6"/><rect x="23" y="9" width="7" height="1" fill="#eef1f5"/><rect x="0" y="10" width="7" height="1" fill="#eef1f5"/><rect x="7" y="10" width="1" height="1" fill="#bc7a09"/><rect x="8" y="10" width="1" height="1" fill="#bc7819"/><rect x="9" y="10" width="1" height="1" fill="#bc7629"/><rect x="10" y="10" width="1" height="1" fill="#bc7539"/><rect x="11" y="10" width="1" height="1" fill="#bc7348"/><rect x="12" y="10" width="1" height="1" fill="#bc7258"/><rect x="13" y="10" width="1" height="1" fill="#bc7068"/><rect x="14" y="10" width="1" height="1" fill="#bc6e78"/><rect x="15" y="10" width="1" height="1" fill="#bc6d87"/><rect x="16" y="10" width="1" height="1" fill="#bc6b97"/><rect x="17" y="10" width="1" height="1" fill="#bc6aa7"/><rect x="18" y="10" width="1" height="1" fill="#bc68b7"/><rect x="19" y="10" width="1" height="1" fill="#bc66c6"/><rect x="20" y="10" width="1" height="1" fill="#bc65d6"/><rect x="21" y="10" width="1" height="1" fill="#bc63e6"/><rect x="22" y="10" width="1" height="1" fill="#bc62f6"/><rect x="23" y="10" width="7" height="1" fill="#eef1f5"/><rect x="0" y="11" width="7" height="1" fill="#eef1f5"/><rect x="7" y="11" width="1" height="1" fill="#ae7e09"/><rect x="8" y="11" width="1" height="1" fill="#ae7c19"/><rect x="9" y="11" width="1" height="1" fill="#ae7a29"/><rect x="10" y="11" width="1" height="1" fill="#ae7939"/><rect x="11" y="11" width="1" height="1" fill="#ae7748"/><rect x="12" y="11" width="1" height="1" fill="#ae7658"/><rect x="13" y="11" width="1" height="1" fill="#ae7468"/><rect x="14" y="11" width="1" height="1" fill="#ae7278"/><rect x="15" y="11" width="1" height="1" fill="#ae7187"/><rect x="16" y="11" width="1" height="1" fill="#ae6f97"/><rect x="17" y="11" width="1" height="1" fill="#ae6ea7"/><rect x="18" y="11" width="1" height="1" fill="#ae6cb7"/><rect x="19" y="11" width="1" height="1" fill="#ae6ac6"/><rect x="20" y="11" width="1" height="1" fill="#ae69d6"/><rect x="21" y="11" width="1" height="1" fill="#ae67e6"/><rect x="22" y="11" width="1" height="1" fill="#ae66f6"/><rect x="23" y="11" width="7" height="1" fill="#eef1f5"/><rect x="0" y="12" width="7" height="1" fill="#eef1f5"/><rect x="7" y="12" width="1" height="1" fill="#a18109"/><rect x="8" y="12" width="1" height="1" fill="#a18019"/><rect x="9" y="12" width="1" height="1" fill="#a17e29"/><rect x="10" y="12" width="1" height="1" fill="#a17d39"/><rect x="11" y="12" width="1" height="1" fill="#a17b48"/><rect x="12" y="12" width="1" height="1" fill="#a17a58"/><rect x="13" y="12" width="1" height="1" fill="#a17868"/><rect x="14" y="12" width="1" height="1" fill="#a17678"/><rect x="15" y="12" width="1" height="1" fill="#a17587"/><rect x="16" y="12" width="1" height="1" fill="#a17397"/><rect x="17" y="12" width="1" height="1" fill="#a172a7"/><rect x="18" y="12" width="1" height="1" fill="#a170b7"/><rect x="19" y="12" width="1" height="1" fill="#a16ec6"/><rect x="20" y="12" width="1" height="1" fill="#a16dd6"/><rect x="21" y="12" width="1" height="1" fill="#a16be6"/><rect x="22" y="12" width="1" height="1" fill="#a16af6"/><rect x="23" y="12" width="7" height="1" fill="#eef1f5"/><rect x="0" y="13" width="7" height="1" fill="#eef1f5"/><rect x="7" y="13" width="1" height="1" fill="#948509"/><rect x="8" y="13" width="1" height="1" fill="#948419"/><rect x="9" y="13" width="1" height="1" fill="#948229"/><rect x="10" y="13" width="1" height="1" fill="#948139"/><rect x="11" y="13" width="1" height="1" fill="#947f48"/><rect x="12" y="13" width="1" height="1" fill="#947e58"/><rect x="13" y="13" width="1" height="1" fill="#947c68"/><rect x="14" y="13" width="1" height="1" fill="#947a78"/><rect x="15" y="13" width="1" height="1" fill="#947987"/><rect x="16" y="13" width="1" height="1" fill="#947797"/><rect x="17" y="13" width="1" height="1" fill="#9476a7"/><rect x="18" y="13" width="1" height="1" fill="#9474b7"/><rect x="19" y="13" width="1" height="1" fill="#9472c6"/><rect x="20" y="13" width="1" height="1" fill="#9471d6"/><rect x="21" y="13" width="1" height="1" fill="#946fe6"/><rect x="22" y="13" width="1" height="1" fill="#946ef6"/><rect x="23" y="13" width="7" height="1" fill="#eef1f5"/><rect x="0" y="14" width="7" height="1" fill="#eef1f5"/><rect x="7" y="14" width="1" height="1" fill="#868909"/><rect x="8" y="14" width="1" height="1" fill="#868819"/><rect x="9" y="14" width="1" height="1" fill="#868629"/><rect x="10" y="14" width="1" height="1" fill="#868539"/><rect x="11" y="14" width="1" height="1" fill="#868348"/><rect x="12" y="14" width="1" height="1" fill="#868158"/><rect x="13" y="14" width="1" height="1" fill="#868068"/><rect x="14" y="14" width="1" height="1" fill="#867e78"/><rect x="15" y="14" width="1" height="1" fill="#867d87"/><rect x="16" y="14" width="1" height="1" fill="#867b97"/><rect x="17" y="14" width="1" height="1" fill="#867aa7"/><rect x="18" y="14" width="1" height="1" fill="#8678b7"/><rect x="19" y="14" width="1" height="1" fill="#8676c6"/><rect x="20" y="14" width="1" height="1" fill="#8675d6"/><rect x="21" y="14" width="1" height="1" fill="#8673e6"/><rect x="22" y="14" width="1" height="1" fill="#8672f6"/><rect x="23" y="14" width="7" height="1" fill="#eef1f5"/><rect x="0" y="15" width="7" height="1" fill="#eef1f5"/><rect x="7" y="15" width="1" height="1" fill="#798d09"/><rect x="8" y="15" width="1" height="1" fill="#798c19"/><rect x="9" y="15" width="1" height="1" fill="#798a29"/><rect x="10" y="15" width="1" height="1" fill="#798939"/><rect x="11" y="15" width="1" height="1" fill="#798748"/><rect x="12" y="15" width="1" height="1" fill="#798558"/><rect x="13" y="15" width="1" height="1" fill="#798468"/><rect x="14" y="15" width="1" height="1" fill="#798278"/><rect x="15" y="15" width="1" height="1" fill="#798187"/><rect x="16" y="15" width="1" height="1" fill="#797f97"/><rect x="17" y="15" width="1" height="1" fill="#797ea7"/><rect x="18" y="15" width="1" height="1" fill="#797cb7"/><rect x="19" y="15" width="1" height="1" fill="#797ac6"/><rect x="20" y="15" width="1" height="1" fill="#7979d6"/><rect x="21" y="15" width="1" height="1" fill="#7977e6"/><rect x="22" y="15" width="1" height="1" fill="#7976f6"/><rect x="23" y="15" width="7" height="1" fill="#eef1f5"/><rect x="0" y="16" width="7" height="1" fill="#eef1f5"/><rect x="7" y="16" width="1" height="1" fill="#6b9109"/><rect x="8" y="16" width="1" height="1" fill="#6b9019"/><rect x="9" y="16" width="1" height="1" fill="#6b8e29"/><rect x="10" y="16" width="1" height="1" fill="#6b8d39"/><rect x="11" y="16" width="1" height="1" fill="#6b8b48"/><rect x="12" y="16" width="1" height="1" fill="#6b8958"/><rect x="13" y="16" width="1" height="1" fill="#6b8868"/><rect x="14" y="16" width="1" height="1" fill="#6b8678"/><rect x="15" y="16" width="1" height="1" fill="#6b8587"/><rect x="16" y="16" width="1" height="1" fill="#6b8397"/><rect x="17" y="16" width="1" height="1" fill="#6b81a7"/><rect x="18" y="16" width="1" height="1" fill="#6b80b7"/><rect x="19" y="16" width="1" height="1" fill="#6b7ec6"/><rect x="20" y="16" width="1" height="1" fill="#6b7dd6"/><rect x="21" y="16" width="1" height="1" fill="#6b7be6"/><rect x="22" y="16" width="1" height="1" fill="#6b7af6"/><rect x="23" y="16" width="7" height="1" fill="#eef1f5"/><rect x="0" y="17" width="7" height="1" fill="#eef1f5"/><rect x="7" y="17" width="1" height="1" fill="#5e9509"/><rect x="8" y="17" width="1" height="1" fill="#5e9419"/><rect x="9" y="17" width="1" height="1" fill="#5e9229"/><rect x="10" y="17" width="1" height="1" fill="#5e9139"/><rect x="11" y="17" width="1" height="1" fill="#5e8f48"/><rect x="12" y="17" width="1" height="1" fill="#5e8d58"/><rect x="13" y="17" width="1" height="1" fill="#5e8c68"/><rect x="14" y="17" width="1" height="1" fill="#5e8a78"/><rect x="15" y="17" width="1" height="1" fill="#5e8987"/><rect x="16" y="17" width="1" height="1" fill="#5e8797"/><rect x="17" y="17" width="1" height="1" fill="#5e85a7"/><rect x="18" y="17" width="1" height="1" fill="#5e84b7"/><rect x="19" y="17" width="1" height="1" fill="#5e82c6"/><rect x="20" y="17" width="1" height="1" fill="#5e81d6"/><rect x="21" y="17" width="1" height="1" fill="#5e7fe6"/><rect x="22" y="17" width="1" height="1" fill="#5e7ef6"/><rect x="23" y="17" width="7" height="1" fill="#eef1f5"/><rect x="0" y="18" width="7" height="1" fill="#eef1f5"/><rect x="7" y="18" width="1" height="1" fill="#519909"/><rect x="8" y="18" width="1" height="1" fill="#519819"/><rect x="9" y="18" width="1" height="1" fill="#519629"/><rect x="10" y="18" width="1" height="1" fill="#519539"/><rect x="11" y="18" width="1" height="1" fill="#519348"/><rect x="12" y="18" width="1" height="1" fill="#519158"/><rect x="13" y="18" width="1" height="1" fill="#519068"/><rect x="14" y="18" width="1" height="1" fill="#518e78"/><rect x="15" y="18" width="1" height="1" fill="#518d87"/><rect x="16" y="18" width="1" height="1" fill="#518b97"/><rect x="17" y="18" width="1" height="1" fill="#5189a7"/><rect x="18" y="18" width="1" height="1" fill="#5188b7"/><rect x="19" y="18" width="1" height="1" fill="#5186c6"/><rect x="20" y="18" width="1" height="1" fill="#5185d6"/><rect x="21" y="18" width="1" height="1" fill="#5183e6"/><rect x="22" y="18" width="1" height="1" fill="#5181f6"/><rect x="23" y="18" width="7" height="1" fill="#eef1f5"/><rect x="0" y="19" width="7" height="1" fill="#eef1f5"/><rect x="7" y="19" width="1" height="1" fill="#439d09"/><rect x="8" y="19" width="1" height="1" fill="#439c19"/><rect x="9" y="19" width="1" height="1" fill="#439a29"/><rect x="10" y="19" width="1" height="1" fill="#439939"/><rect x="11" y="19" width="1" height="1" fill="#439748"/><rect x="12" y="19" width="1" height="1" fill="#439558"/><rect x="13" y="19" width="1" height="1" fill="#439468"/><rect x="14" y="19" width="1" height="1" fill="#439278"/><rect x="15" y="19" width="1" height="1" fill="#439187"/><rect x="16" y="19" width="1" height="1" fill="#438f97"/><rect x="17" y="19" width="1" height="1" fill="#438da7"/><rect x="18" y="19" width="1" height="1" fill="#438cb7"/><rect x="19" y="19" width="1" height="1" fill="#438ac6"/><rect x="20" y="19" width="1" height="1" fill="#4389d6"/><rect x="21" y="19" width="1" height="1" fill="#4387e6"/><rect x="22" y="19" width="1" height="1" fill="#4385f6"/><rect x="23" y="19" width="7" height="1" fill="#eef1f5"/><rect x="0" y="20" width="7" height="1" fill="#eef1f5"/><rect x="7" y="20" width="1" height="1" fill="#36a109"/><rect x="8" y="20" width="1" height="1" fill="#36a019"/><rect x="9" y="20" width="1" height="1" fill="#369e29"/><rect x="10" y="20" width="1" height="1" fill="#369d39"/><rect x="11" y="20" width="1" height="1" fill="#369b48"/><rect x="12" y="20" width="1" height="1" fill="#369958"/><rect x="13" y="20" width="1" height="1" fill="#369868"/><rect x="14" y="20" width="1" height="1" fill="#369678"/><rect x="15" y="20" width="1" height="1" fill="#369587"/><rect x="16" y="20" width="1" height="1" fill="#369397"/><rect x="17" y="20" width="1" height="1" fill="#3691a7"/><rect x="18" y="20" width="1" height="1" fill="#3690b7"/><rect x="19" y="20" width="1" height="1" fill="#368ec6"/><rect x="20" y="20" width="1" height="1" fill="#368dd6"/><rect x="21" y="20" width="1" height="1" fill="#368be6"/><rect x="22" y="20" width="1" height="1" fill="#3689f6"/><rect x="23" y="20" width="7" height="1" fill="#eef1f5"/><rect x="0" y="21" width="7" height="1" fill="#eef1f5"/><rect x="7" y="21" width="1" height="1" fill="#28a509"/><rect x="8" y="21" width="1" height="1" fill="#28a419"/><rect x="9" y="21" width="1" height="1" fill="#28a229"/><rect x="10" y="21" width="1" height="1" fill="#28a139"/><rect x="11" y="21" width="1" height="1" fill="#289f48"/><rect x="12" y="21" width="1" height="1" fill="#289d58"/><rect x="13" y="21" width="1" height="1" fill="#289c68"/><rect x="14" y="21" width="1" height="1" fill="#289a78"/><rect x="15" y="21" width="1" height="1" fill="#289987"/><rect x="16" y="21" width="1" height="1" fill="#289797"/><rect x="17" y="21" width="1" height="1" fill="#2895a7"/><rect x="18" y="21" width="1" height="1" fill="#2894b7"/><rect x="19" y="21" width="1" height="1" fill="#2892c6"/><rect x="20" y="21" width="1" height="1" fill="#2891d6"/><rect x="21" y="21" width="1" height="1" fill="#288fe6"/><rect x="22" y="21" width="1" height="1" fill="#288df6"/><rect x="23" y="21" width="7" height="1" fill="#eef1f5"/><rect x="0" y="22" width="7" height="1" fill="#eef1f5"/><rect x="7" y="22" width="1" height="1" fill="#1ba909"/><rect x="8" y="22" width="1" height="1" fill="#1ba819"/><rect x="9" y="22" width="1" height="1" fill="#1ba629"/><rect x="10" y="22" width="1" height="1" fill="#1ba539"/><rect x="11" y="22" width="1" height="1" fill="#1ba348"/><rect x="12" y="22" width="1" height="1" fill="#1ba158"/><rect x="13" y="22" width="1" height="1" fill="#1ba068"/><rect x="14" y="22" width="1" height="1" fill="#1b9e78"/><rect x="15" y="22" width="1" height="1" fill="#1b9d87"/><rect x="16" y="22" width="1" height="1" fill="#1b9b97"/><rect x="17" y="22" width="1" height="1" fill="#1b99a7"/><rect x="18" y="22" width="1" height="1" fill="#1b98b7"/><rect x="19" y="22" width="1" height="1" fill="#1b96c6"/><rect x="20" y="22" width="1" height="1" fill="#1b95d6"/><rect x="21" y="22" width="1" height="1" fill="#1b93e6"/><rect x="22" y="22" width="1" height="1" fill="#1b91f6"/><rect x="23" y="22" width="7" height="1" fill="#eef1f5"/><rect x="0" y="23" width="7" height="1" fill="#eef1f5"/><rect x="7" y="23" width="1" height="1" fill="#0ead09"/><rect x="8" y="23" width="1" height="1" fill="#0eac19"/><rect x="9" y="23" width="1" height="1" fill="#0eaa29"/><rect x="10" y="23" width="1" height="1" fill="#0ea839"/><rect x="11" y="23" width="1" height="1" fill="#0ea748"/><rect x="12" y="23" width="1" height="1" fill="#0ea558"/><rect x="13" y="23" width="1" height="1" fill="#0ea468"/><rect x="14" y="23" width="1" height="1" fill="#0ea278"/><rect x="15" y="23" width="1" height="1" fill="#0ea187"/><rect x="16" y="23" width="1" height="1" fill="#0e9f97"/><rect x="17" y="23" width="1" height="1" fill="#0e9da7"/><rect x="18" y="23" width="1" height="1" fill="#0e9cb7"/><rect x="19" y="23" width="1" height="1" fill="#0e9ac6"/><rect x="20" y="23" width="1" height="1" fill="#0e99d6"/><rect x="21" y="23" width="1" height="1" fill="#0e97e6"/><rect x="22" y="23" width="1" height="1" fill="#0e95f6"/><rect x="23" y="23" width="7" height="1" fill="#eef1f5"/><rect x="0" y="24" width="7" height="1" fill="#eef1f5"/><rect x="7" y="24" width="1" height="1" fill="#00b109"/><rect x="8" y="24" width="1" height="1" fill="#00b019"/><rect x="9" y="24" width="1" height="1" fill="#00ae29"/><rect x="10" y="24" width="1" height="1" fill="#00ac39"/><rect x="11" y="24" width="1" height="1" fill="#00ab48"/><rect x="12" y="24" width="1" height="1" fill="#00a958"/><rect x="13" y="24" width="1" height="1" fill="#00a868"/><rect x="14" y="24" width="1" height="1" fill="#00a678"/><rect x="15" y="24" width="1" height="1" fill="#00a587"/><rect x="16" y="24" width="1" height="1" fill="#00a397"/><rect x="17" y="24" width="1" height="1" fill="#00a1a7"/><rect x="18" y="24" width="1" height="1" fill="#00a0b7"/><rect x="19" y="24" width="1" height="1" fill="#009ec6"/><rect x="20" y="24" width="1" height="1" fill="#009dd6"/><rect x="21" y="24" width="1" height="1" fill="#009be6"/><rect x="22" y="24" width="1" height="1" fill="#0099f6"/><rect x="23" y="24" width="7" height="1" fill="#eef1f5"/><rect x="0" y="25" width="30" height="1" fill="#eef1f5"/><rect x="0" y="26" width="30" height="1" fill="#eef1f5"/><rect x="0" y="27" width="30" height="1" fill="#eef1f5"/><rect x="0" y="28" width="30" height="1" fill="#eef1f5"/><rect x="0" y="29" width="30" height="1" fill="#eef1f5"/></g><rect x="44.00" y="108.00" width="400.00" height="400.00" rx="0" fill="#ffffff" opacity="0.32"/><rect x="43.00" y="107.00" width="402.00" height="402.00" rx="4" fill="none" stroke="#d9e0e8" stroke-width="1"/><g clip-path="url(#pl)"><path d="M 244.0,308.0 19.1,589.1 L 25.5,594.1 L 32.1,599.0 L 38.8,603.8 L 45.5,608.4 L 52.4,612.8 L 59.4,617.1 L 66.5,621.2 L 73.7,625.2 L 80.9,629.0 L 88.3,632.6 L 95.7,636.0 L 103.2,639.3 L 110.8,642.5 L 118.5,645.4 L 126.2,648.2 L 133.9,650.8 L 141.8,653.2 L 149.7,655.4 L 157.6,657.5 L 165.6,659.4 L 173.6,661.0 L 181.6,662.6 L 189.7,663.9 Z" fill="#1a7f4b" opacity="0.22"/><path d="M 244.0,308.0 19.1,589.1 L 25.5,594.1 L 32.1,599.0 L 38.8,603.8 L 45.5,608.4 L 52.4,612.8 L 59.4,617.1 L 66.5,621.2 L 73.7,625.2 L 80.9,629.0 L 88.3,632.6 L 95.7,636.0 L 103.2,639.3 L 110.8,642.5 L 118.5,645.4 L 126.2,648.2 L 133.9,650.8 L 141.8,653.2 L 149.7,655.4 L 157.6,657.5 L 165.6,659.4 L 173.6,661.0 L 181.6,662.6 L 189.7,663.9 Z" fill="none" stroke="#146b3f" stroke-width="2"/><circle cx="186.9" cy="438.4" r="64.0" fill="#8b3aa8" opacity="0.12"/><circle cx="186.9" cy="438.4" r="64.0" fill="none" stroke="#8b3aa8" stroke-width="2" stroke-dasharray="6 4"/></g><line x1="235.97" y1="326.32" x2="144.43" y2="535.14" stroke="#1c2733" stroke-width="1.4" stroke-linecap="round" stroke-dasharray="5 4" opacity="0.8"/><circle cx="244.00" cy="308.00" r="4.50" fill="#ffffff" stroke="#1c2733" stroke-width="1.4"/><text x="255.0" y="302.0" font-size="10.5" fill="#17212b" text-anchor="start" font-weight="600" font-family="ui-sans-serif,system-ui,-apple-system,Segoe UI,Roboto,Helvetica,Arial,sans-serif">neutral grey</text><circle cx="210.07" cy="265.14" r="4.20" fill="#ffffff" stroke="#1c2733" stroke-width="1.4"/><text x="222.1" y="269.1" font-size="10.5" fill="#17212b" text-anchor="start" font-weight="600" font-family="ui-sans-serif,system-ui,-apple-system,Segoe UI,Roboto,Helvetica,Arial,sans-serif">skin</text><circle cx="285.07" cy="331.21" r="4.20" fill="#ffffff" stroke="#1c2733" stroke-width="1.4"/><text x="297.1" y="335.2" font-size="10.5" fill="#17212b" text-anchor="start" font-weight="600" font-family="ui-sans-serif,system-ui,-apple-system,Segoe UI,Roboto,Helvetica,Arial,sans-serif">denim shirt</text><circle cx="208.29" cy="350.86" r="4.20" fill="#ffffff" stroke="#1c2733" stroke-width="1.4"/><text x="196.3" y="344.9" font-size="10.5" fill="#17212b" text-anchor="end" font-weight="600" font-family="ui-sans-serif,system-ui,-apple-system,Segoe UI,Roboto,Helvetica,Arial,sans-serif">green jumper</text><circle cx="165.43" cy="493.71" r="4.20" fill="#ffffff" stroke="#1c2733" stroke-width="1.4"/><text x="177.4" y="489.7" font-size="10.5" fill="#17212b" text-anchor="start" font-weight="600" font-family="ui-sans-serif,system-ui,-apple-system,Segoe UI,Roboto,Helvetica,Arial,sans-serif">screen, hot spot</text><circle cx="208.29" cy="383.00" r="4.20" fill="#ffffff" stroke="#1c2733" stroke-width="1.4"/><text x="221.3" y="386.0" font-size="10.5" fill="#17212b" text-anchor="start" font-weight="600" font-family="ui-sans-serif,system-ui,-apple-system,Segoe UI,Roboto,Helvetica,Arial,sans-serif">screen, deep shadow</text><circle cx="186.86" cy="438.36" r="6.50" fill="#ffffff" stroke="#146b3f" stroke-width="2.2"/><circle cx="186.86" cy="438.36" r="2.40" fill="#146b3f"/><text x="201.9" y="441.4" font-size="10.5" fill="#17212b" text-anchor="start" font-weight="700" font-family="ui-sans-serif,system-ui,-apple-system,Segoe UI,Roboto,Helvetica,Arial,sans-serif">screen, key light</text><text x="432.0" y="494.0" font-size="10" fill="#5d6b7a" text-anchor="end" font-weight="400" font-family="ui-sans-serif,system-ui,-apple-system,Segoe UI,Roboto,Helvetica,Arial,sans-serif">Cb  -&gt;</text><text x="56.0" y="128.0" font-size="10" fill="#5d6b7a" text-anchor="start" font-weight="400" font-family="ui-sans-serif,system-ui,-apple-system,Segoe UI,Roboto,Helvetica,Arial,sans-serif">Cr  ^</text><rect x="242.00" y="118.00" width="192.00" height="80.00" rx="6" fill="#ffffff" stroke="#d9e0e8" stroke-width="1" opacity="0.95"/><text x="254.0" y="138.0" font-size="9.5" fill="#17212b" text-anchor="start" font-weight="700" font-family="ui-sans-serif,system-ui,-apple-system,Segoe UI,Roboto,Helvetica,Arial,sans-serif">Same screen, 3 stops apart</text><text x="254.0" y="152.0" font-size="8.5" fill="#5d6b7a" text-anchor="start" font-weight="400" font-family="ui-sans-serif,system-ui,-apple-system,Segoe UI,Roboto,Helvetica,Arial,sans-serif">hue angle</text><text x="422.0" y="152.0" font-size="8.5" fill="#5d6b7a" text-anchor="end" font-weight="400" font-family="ui-sans-serif,system-ui,-apple-system,Segoe UI,Roboto,Helvetica,Arial,sans-serif">radius</text><text x="254.0" y="168.0" font-size="9" fill="#5d6b7a" text-anchor="start" font-weight="400" font-family="ui-sans-serif,system-ui,-apple-system,Segoe UI,Roboto,Helvetica,Arial,sans-serif">hot spot</text><text x="380.0" y="168.0" font-size="9" fill="#1a7f4b" text-anchor="end" font-weight="600" font-family="ui-sans-serif,system-ui,-apple-system,Segoe UI,Roboto,Helvetica,Arial,sans-serif">247.1 deg</text><text x="422.0" y="168.0" font-size="9" fill="#5d6b7a" text-anchor="end" font-weight="400" font-family="ui-sans-serif,system-ui,-apple-system,Segoe UI,Roboto,Helvetica,Arial,sans-serif">113</text><text x="254.0" y="182.0" font-size="9" fill="#5d6b7a" text-anchor="start" font-weight="400" font-family="ui-sans-serif,system-ui,-apple-system,Segoe UI,Roboto,Helvetica,Arial,sans-serif">key light</text><text x="380.0" y="182.0" font-size="9" fill="#1a7f4b" text-anchor="end" font-weight="600" font-family="ui-sans-serif,system-ui,-apple-system,Segoe UI,Roboto,Helvetica,Arial,sans-serif">246.3 deg</text><text x="422.0" y="182.0" font-size="9" fill="#5d6b7a" text-anchor="end" font-weight="400" font-family="ui-sans-serif,system-ui,-apple-system,Segoe UI,Roboto,Helvetica,Arial,sans-serif">80</text><text x="254.0" y="196.0" font-size="9" fill="#5d6b7a" text-anchor="start" font-weight="400" font-family="ui-sans-serif,system-ui,-apple-system,Segoe UI,Roboto,Helvetica,Arial,sans-serif">deep shadow</text><text x="380.0" y="196.0" font-size="9" fill="#1a7f4b" text-anchor="end" font-weight="600" font-family="ui-sans-serif,system-ui,-apple-system,Segoe UI,Roboto,Helvetica,Arial,sans-serif">244.5 deg</text><text x="422.0" y="196.0" font-size="9" fill="#5d6b7a" text-anchor="end" font-weight="400" font-family="ui-sans-serif,system-ui,-apple-system,Segoe UI,Roboto,Helvetica,Arial,sans-serif">47</text><text x="56.0" y="146.0" font-size="9" fill="#5d6b7a" text-anchor="start" font-weight="400" opacity="0.9" font-family="ui-sans-serif,system-ui,-apple-system,Segoe UI,Roboto,Helvetica,Arial,sans-serif">slice through Y' = 0.5</text><rect x="480.00" y="108.00" width="468.00" height="196.00" rx="10" fill="#ffffff" stroke="#d9e0e8" stroke-width="1"/><text x="498.0" y="134.0" font-size="13" fill="#17212b" text-anchor="start" font-weight="650" font-family="ui-sans-serif,system-ui,-apple-system,Segoe UI,Roboto,Helvetica,Arial,sans-serif">Two ways to draw the same intention</text><line x1="500.00" y1="152.00" x2="526.00" y2="152.00" stroke="#1c2733" stroke-width="1.6" stroke-linecap="round" stroke-dasharray="5 4"/><text x="536.0" y="156.0" font-size="11" fill="#1c2733" text-anchor="start" font-weight="700" font-family="ui-sans-serif,system-ui,-apple-system,Segoe UI,Roboto,Helvetica,Arial,sans-serif">Exposure ray</text><text x="536.0" y="171.0" font-size="10.3" fill="#5d6b7a" text-anchor="start" font-weight="400" font-family="ui-sans-serif,system-ui,-apple-system,Segoe UI,Roboto,Helvetica,Arial,sans-serif">Brighten the screen and every pixel slides outward along</text><text x="536.0" y="184.0" font-size="10.3" fill="#5d6b7a" text-anchor="start" font-weight="400" font-family="ui-sans-serif,system-ui,-apple-system,Segoe UI,Roboto,Helvetica,Arial,sans-serif">this line. The angle is the hue and it barely moves - 2.5</text><text x="536.0" y="197.0" font-size="10.3" fill="#5d6b7a" text-anchor="start" font-weight="400" font-family="ui-sans-serif,system-ui,-apple-system,Segoe UI,Roboto,Helvetica,Arial,sans-serif">degrees across three stops. The radius is just exposure.</text><circle cx="513.00" cy="214.00" r="7.00" fill="#8b3aa8" opacity="0.15"/><circle cx="513.00" cy="214.00" r="7.00" fill="none" stroke="#8b3aa8" stroke-width="1.8"/><text x="536.0" y="218.0" font-size="11" fill="#8b3aa8" text-anchor="start" font-weight="700" font-family="ui-sans-serif,system-ui,-apple-system,Segoe UI,Roboto,Helvetica,Arial,sans-serif">Disc</text><text x="536.0" y="233.0" font-size="10.3" fill="#5d6b7a" text-anchor="start" font-weight="400" font-family="ui-sans-serif,system-ui,-apple-system,Segoe UI,Roboto,Helvetica,Arial,sans-serif">Plain distance from the key colour. What ffmpeg's chromakey</text><text x="536.0" y="246.0" font-size="10.3" fill="#5d6b7a" text-anchor="start" font-weight="400" font-family="ui-sans-serif,system-ui,-apple-system,Segoe UI,Roboto,Helvetica,Arial,sans-serif">does. Has to be widened until it swallows the darkest corner</text><text x="536.0" y="259.0" font-size="10.3" fill="#5d6b7a" text-anchor="start" font-weight="400" font-family="ui-sans-serif,system-ui,-apple-system,Segoe UI,Roboto,Helvetica,Arial,sans-serif">of the screen, and widening is what starts eating foreground.</text><rect x="505.00" y="270.00" width="17.00" height="12.00" rx="2" fill="#146b3f" opacity="0.25"/><rect x="505.00" y="270.00" width="17.00" height="12.00" rx="2" fill="none" stroke="#146b3f" stroke-width="1.6"/><text x="536.0" y="280.0" font-size="11" fill="#146b3f" text-anchor="start" font-weight="700" font-family="ui-sans-serif,system-ui,-apple-system,Segoe UI,Roboto,Helvetica,Arial,sans-serif">Wedge</text><text x="536.0" y="295.0" font-size="10.3" fill="#5d6b7a" text-anchor="start" font-weight="400" font-family="ui-sans-serif,system-ui,-apple-system,Segoe UI,Roboto,Helvetica,Arial,sans-serif">Angle from the key hue, with a saturation floor. Indifferent</text><text x="536.0" y="308.0" font-size="10.3" fill="#5d6b7a" text-anchor="start" font-weight="400" font-family="ui-sans-serif,system-ui,-apple-system,Segoe UI,Roboto,Helvetica,Arial,sans-serif">to how the screen is lit. This is what real keyers do.</text><rect x="480.00" y="316.00" width="468.00" height="192.00" rx="10" fill="#ffffff" stroke="#d9e0e8" stroke-width="1"/><text x="498.0" y="340.0" font-size="13" fill="#17212b" text-anchor="start" font-weight="650" font-family="ui-sans-serif,system-ui,-apple-system,Segoe UI,Roboto,Helvetica,Arial,sans-serif">How distance becomes alpha</text><rect x="502.00" y="352.00" width="142.80" height="116.00" rx="0" fill="#8b3aa8" opacity="0.09"/><rect x="644.80" y="352.00" width="100.80" height="116.00" rx="0" fill="#b45309" opacity="0.11"/><rect x="745.60" y="352.00" width="176.40" height="116.00" rx="0" fill="#1a7f4b" opacity="0.09"/><line x1="502.00" y1="468.00" x2="922.00" y2="468.00" stroke="#5d6b7a" stroke-width="1" stroke-linecap="round"/><line x1="502.00" y1="352.00" x2="502.00" y2="468.00" stroke="#5d6b7a" stroke-width="1" stroke-linecap="round"/><polyline points="502,468 644.8,468 745.6,352 922,352" fill="none" stroke="#1c2733" stroke-width="2.4" stroke-linejoin="round"/><text x="494.0" y="472.0" font-size="10" fill="#5d6b7a" text-anchor="end" font-weight="400" font-family="ui-sans-serif,system-ui,-apple-system,Segoe UI,Roboto,Helvetica,Arial,sans-serif">0</text><text x="494.0" y="357.0" font-size="10" fill="#5d6b7a" text-anchor="end" font-weight="400" font-family="ui-sans-serif,system-ui,-apple-system,Segoe UI,Roboto,Helvetica,Arial,sans-serif">1</text><text x="494.0" y="414.0" font-size="10" fill="#5d6b7a" text-anchor="end" font-weight="400" font-family="ui-sans-serif,system-ui,-apple-system,Segoe UI,Roboto,Helvetica,Arial,sans-serif">alpha</text><text x="573.4" y="410.0" font-size="10" fill="#8b3aa8" text-anchor="middle" font-weight="700" font-family="ui-sans-serif,system-ui,-apple-system,Segoe UI,Roboto,Helvetica,Arial,sans-serif">keyed out</text><text x="695.2" y="368.0" font-size="10" fill="#b45309" text-anchor="middle" font-weight="700" font-family="ui-sans-serif,system-ui,-apple-system,Segoe UI,Roboto,Helvetica,Arial,sans-serif">soft edge</text><text x="833.8" y="410.0" font-size="10" fill="#1a7f4b" text-anchor="middle" font-weight="700" font-family="ui-sans-serif,system-ui,-apple-system,Segoe UI,Roboto,Helvetica,Arial,sans-serif">kept</text><line x1="644.80" y1="468.00" x2="644.80" y2="475.00" stroke="#5d6b7a" stroke-width="1" stroke-linecap="round"/><line x1="745.60" y1="468.00" x2="745.60" y2="475.00" stroke="#5d6b7a" stroke-width="1" stroke-linecap="round"/><text x="644.8" y="488.0" font-size="9.5" fill="#8b3aa8" text-anchor="middle" font-weight="700" font-family="ui-sans-serif,system-ui,-apple-system,Segoe UI,Roboto,Helvetica,Arial,sans-serif">similarity</text><text x="695.2" y="488.0" font-size="9.5" fill="#b45309" text-anchor="middle" font-weight="700" font-family="ui-sans-serif,system-ui,-apple-system,Segoe UI,Roboto,Helvetica,Arial,sans-serif">blend</text><text x="922.0" y="488.0" font-size="9.5" fill="#5d6b7a" text-anchor="end" font-weight="400" font-family="ui-sans-serif,system-ui,-apple-system,Segoe UI,Roboto,Helvetica,Arial,sans-serif">distance from the key -&gt;</text><text x="498.0" y="508.0" font-size="10.3" fill="#5d6b7a" text-anchor="start" font-weight="400" font-family="ui-sans-serif,system-ui,-apple-system,Segoe UI,Roboto,Helvetica,Arial,sans-serif">Hair, motion blur, smoke and glass all live in the middle band. Widen it and</text><text x="498.0" y="521.0" font-size="10.3" fill="#5d6b7a" text-anchor="start" font-weight="400" font-family="ui-sans-serif,system-ui,-apple-system,Segoe UI,Roboto,Helvetica,Arial,sans-serif">edges soften; close it and you get a cut-out with jagged edges.</text><text x="28.0" y="542.0" font-size="11.5" fill="#5d6b7a" text-anchor="start" font-weight="400" font-family="ui-sans-serif,system-ui,-apple-system,Segoe UI,Roboto,Helvetica,Arial,sans-serif">The green jumper sits 16 degrees from the key hue, just outside both regions. That one degree of margin is the whole reason nobody wears</text><text x="28.0" y="560.0" font-size="11.5" fill="#5d6b7a" text-anchor="start" font-weight="400" font-family="ui-sans-serif,system-ui,-apple-system,Segoe UI,Roboto,Helvetica,Arial,sans-serif">green on a green screen. Dark hair, by the way, lands almost exactly on neutral grey - which is why it keys cleanly and shadows do not.</text></svg>