<?xml version="1.0" encoding="UTF-8"?>
<?xml-stylesheet href="https://cdnjs.cloudflare.com/ajax/libs/font-awesome/6.7.2/css/all.min.css" type="text/css"?>
<svg id="graph-1588" width="100%" xmlns="http://www.w3.org/2000/svg" style="overflow: hidden; max-width: 100%; touch-action: none; user-select: none;" role="graphics-document document" aria-roledescription="timeline" height="100%" xmlns:xlink="http://www.w3.org/1999/xlink" xmlns:ev="http://www.w3.org/2001/xml-events"><defs><marker id="arrowhead" refX="5" refY="2" markerWidth="6" markerHeight="4" orient="auto"><path d="M 0,0 V 4 L6,2 Z"></path></marker></defs><g id="viewport-20250803022630987" class="svg-pan-zoom_viewport" transform="matrix(0.5185955762863159,0,0,0.5185955762863159,-80.6756820678711,109.26997375488281)" style="transform: matrix(0.518596, 0, 0, 0.518596, -80.6757, 109.27);"><style>#graph-1588{font-family:"trebuchet ms",verdana,arial,sans-serif;font-size:16px;fill:#ccc;}@keyframes edge-animation-frame{from{stroke-dashoffset:0;}}@keyframes dash{to{stroke-dashoffset:0;}}#graph-1588 .edge-animation-slow{stroke-dasharray:9,5!important;stroke-dashoffset:900;animation:dash 50s linear infinite;stroke-linecap:round;}#graph-1588 .edge-animation-fast{stroke-dasharray:9,5!important;stroke-dashoffset:900;animation:dash 20s linear infinite;stroke-linecap:round;}#graph-1588 .error-icon{fill:#a44141;}#graph-1588 .error-text{fill:#ddd;stroke:#ddd;}#graph-1588 .edge-thickness-normal{stroke-width:1px;}#graph-1588 .edge-thickness-thick{stroke-width:3.5px;}#graph-1588 .edge-pattern-solid{stroke-dasharray:0;}#graph-1588 .edge-thickness-invisible{stroke-width:0;fill:none;}#graph-1588 .edge-pattern-dashed{stroke-dasharray:3;}#graph-1588 .edge-pattern-dotted{stroke-dasharray:2;}#graph-1588 .marker{fill:lightgrey;stroke:lightgrey;}#graph-1588 .marker.cross{stroke:lightgrey;}#graph-1588 svg{font-family:"trebuchet ms",verdana,arial,sans-serif;font-size:16px;}#graph-1588 p{margin:0;}#graph-1588 .edge{stroke-width:3;}#graph-1588 .section--1 rect,#graph-1588 .section--1 path,#graph-1588 .section--1 circle,#graph-1588 .section--1 path{fill:#1f2020;}#graph-1588 .section--1 text{fill:lightgrey;}#graph-1588 .node-icon--1{font-size:40px;color:lightgrey;}#graph-1588 .section-edge--1{stroke:#1f2020;}#graph-1588 .edge-depth--1{stroke-width:17;}#graph-1588 .section--1 line{stroke:#e0dfdf;stroke-width:3;}#graph-1588 .lineWrapper line{stroke:lightgrey;}#graph-1588 .disabled,#graph-1588 .disabled circle,#graph-1588 .disabled text{fill:lightgray;}#graph-1588 .disabled text{fill:#efefef;}#graph-1588 .section-0 rect,#graph-1588 .section-0 path,#graph-1588 .section-0 circle,#graph-1588 .section-0 path{fill:#0b0000;}#graph-1588 .section-0 text{fill:lightgrey;}#graph-1588 .node-icon-0{font-size:40px;color:lightgrey;}#graph-1588 .section-edge-0{stroke:#0b0000;}#graph-1588 .edge-depth-0{stroke-width:14;}#graph-1588 .section-0 line{stroke:#f4ffff;stroke-width:3;}#graph-1588 .lineWrapper line{stroke:lightgrey;}#graph-1588 .disabled,#graph-1588 .disabled circle,#graph-1588 .disabled text{fill:lightgray;}#graph-1588 .disabled text{fill:#efefef;}#graph-1588 .section-1 rect,#graph-1588 .section-1 path,#graph-1588 .section-1 circle,#graph-1588 .section-1 path{fill:#4d1037;}#graph-1588 .section-1 text{fill:lightgrey;}#graph-1588 .node-icon-1{font-size:40px;color:lightgrey;}#graph-1588 .section-edge-1{stroke:#4d1037;}#graph-1588 .edge-depth-1{stroke-width:11;}#graph-1588 .section-1 line{stroke:#b2efc8;stroke-width:3;}#graph-1588 .lineWrapper line{stroke:lightgrey;}#graph-1588 .disabled,#graph-1588 .disabled circle,#graph-1588 .disabled text{fill:lightgray;}#graph-1588 .disabled text{fill:#efefef;}#graph-1588 .section-2 rect,#graph-1588 .section-2 path,#graph-1588 .section-2 circle,#graph-1588 .section-2 path{fill:#3f5258;}#graph-1588 .section-2 text{fill:lightgrey;}#graph-1588 .node-icon-2{font-size:40px;color:lightgrey;}#graph-1588 .section-edge-2{stroke:#3f5258;}#graph-1588 .edge-depth-2{stroke-width:8;}#graph-1588 .section-2 line{stroke:#c0ada7;stroke-width:3;}#graph-1588 .lineWrapper line{stroke:lightgrey;}#graph-1588 .disabled,#graph-1588 .disabled circle,#graph-1588 .disabled text{fill:lightgray;}#graph-1588 .disabled text{fill:#efefef;}#graph-1588 .section-3 rect,#graph-1588 .section-3 path,#graph-1588 .section-3 circle,#graph-1588 .section-3 path{fill:#4f2f1b;}#graph-1588 .section-3 text{fill:lightgrey;}#graph-1588 .node-icon-3{font-size:40px;color:lightgrey;}#graph-1588 .section-edge-3{stroke:#4f2f1b;}#graph-1588 .edge-depth-3{stroke-width:5;}#graph-1588 .section-3 line{stroke:#b0d0e4;stroke-width:3;}#graph-1588 .lineWrapper line{stroke:lightgrey;}#graph-1588 .disabled,#graph-1588 .disabled circle,#graph-1588 .disabled text{fill:lightgray;}#graph-1588 .disabled text{fill:#efefef;}#graph-1588 .section-4 rect,#graph-1588 .section-4 path,#graph-1588 .section-4 circle,#graph-1588 .section-4 path{fill:#6e0a0a;}#graph-1588 .section-4 text{fill:lightgrey;}#graph-1588 .node-icon-4{font-size:40px;color:lightgrey;}#graph-1588 .section-edge-4{stroke:#6e0a0a;}#graph-1588 .edge-depth-4{stroke-width:2;}#graph-1588 .section-4 line{stroke:#91f5f5;stroke-width:3;}#graph-1588 .lineWrapper line{stroke:lightgrey;}#graph-1588 .disabled,#graph-1588 .disabled circle,#graph-1588 .disabled text{fill:lightgray;}#graph-1588 .disabled text{fill:#efefef;}#graph-1588 .section-5 rect,#graph-1588 .section-5 path,#graph-1588 .section-5 circle,#graph-1588 .section-5 path{fill:#3b0048;}#graph-1588 .section-5 text{fill:lightgrey;}#graph-1588 .node-icon-5{font-size:40px;color:lightgrey;}#graph-1588 .section-edge-5{stroke:#3b0048;}#graph-1588 .edge-depth-5{stroke-width:-1;}#graph-1588 .section-5 line{stroke:#c4ffb7;stroke-width:3;}#graph-1588 .lineWrapper line{stroke:lightgrey;}#graph-1588 .disabled,#graph-1588 .disabled circle,#graph-1588 .disabled text{fill:lightgray;}#graph-1588 .disabled text{fill:#efefef;}#graph-1588 .section-6 rect,#graph-1588 .section-6 path,#graph-1588 .section-6 circle,#graph-1588 .section-6 path{fill:#995a01;}#graph-1588 .section-6 text{fill:lightgrey;}#graph-1588 .node-icon-6{font-size:40px;color:lightgrey;}#graph-1588 .section-edge-6{stroke:#995a01;}#graph-1588 .edge-depth-6{stroke-width:-4;}#graph-1588 .section-6 line{stroke:#66a5fe;stroke-width:3;}#graph-1588 .lineWrapper line{stroke:lightgrey;}#graph-1588 .disabled,#graph-1588 .disabled circle,#graph-1588 .disabled text{fill:lightgray;}#graph-1588 .disabled text{fill:#efefef;}#graph-1588 .section-7 rect,#graph-1588 .section-7 path,#graph-1588 .section-7 circle,#graph-1588 .section-7 path{fill:#154706;}#graph-1588 .section-7 text{fill:lightgrey;}#graph-1588 .node-icon-7{font-size:40px;color:lightgrey;}#graph-1588 .section-edge-7{stroke:#154706;}#graph-1588 .edge-depth-7{stroke-width:-7;}#graph-1588 .section-7 line{stroke:#eab8f9;stroke-width:3;}#graph-1588 .lineWrapper line{stroke:lightgrey;}#graph-1588 .disabled,#graph-1588 .disabled circle,#graph-1588 .disabled text{fill:lightgray;}#graph-1588 .disabled text{fill:#efefef;}#graph-1588 .section-8 rect,#graph-1588 .section-8 path,#graph-1588 .section-8 circle,#graph-1588 .section-8 path{fill:#161722;}#graph-1588 .section-8 text{fill:lightgrey;}#graph-1588 .node-icon-8{font-size:40px;color:lightgrey;}#graph-1588 .section-edge-8{stroke:#161722;}#graph-1588 .edge-depth-8{stroke-width:-10;}#graph-1588 .section-8 line{stroke:#e9e8dd;stroke-width:3;}#graph-1588 .lineWrapper line{stroke:lightgrey;}#graph-1588 .disabled,#graph-1588 .disabled circle,#graph-1588 .disabled text{fill:lightgray;}#graph-1588 .disabled text{fill:#efefef;}#graph-1588 .section-9 rect,#graph-1588 .section-9 path,#graph-1588 .section-9 circle,#graph-1588 .section-9 path{fill:#00296f;}#graph-1588 .section-9 text{fill:lightgrey;}#graph-1588 .node-icon-9{font-size:40px;color:lightgrey;}#graph-1588 .section-edge-9{stroke:#00296f;}#graph-1588 .edge-depth-9{stroke-width:-13;}#graph-1588 .section-9 line{stroke:#ffd690;stroke-width:3;}#graph-1588 .lineWrapper line{stroke:lightgrey;}#graph-1588 .disabled,#graph-1588 .disabled circle,#graph-1588 .disabled text{fill:lightgray;}#graph-1588 .disabled text{fill:#efefef;}#graph-1588 .section-10 rect,#graph-1588 .section-10 path,#graph-1588 .section-10 circle,#graph-1588 .section-10 path{fill:#01629c;}#graph-1588 .section-10 text{fill:lightgrey;}#graph-1588 .node-icon-10{font-size:40px;color:lightgrey;}#graph-1588 .section-edge-10{stroke:#01629c;}#graph-1588 .edge-depth-10{stroke-width:-16;}#graph-1588 .section-10 line{stroke:#fe9d63;stroke-width:3;}#graph-1588 .lineWrapper line{stroke:lightgrey;}#graph-1588 .disabled,#graph-1588 .disabled circle,#graph-1588 .disabled text{fill:lightgray;}#graph-1588 .disabled text{fill:#efefef;}#graph-1588 .section-root rect,#graph-1588 .section-root path,#graph-1588 .section-root circle{fill:hsl(180, 1.5873015873%, 48.3529411765%);}#graph-1588 .section-root text{fill:#2c2c2c;}#graph-1588 .icon-container{height:100%;display:flex;justify-content:center;align-items:center;}#graph-1588 .edge{fill:none;}#graph-1588 .eventWrapper{filter:brightness(120%);}#graph-1588 :root{--mermaid-font-family:"trebuchet ms",verdana,arial,sans-serif;}</style><g></g><g></g><g class="taskWrapper" transform="translate(100, 50)"><g class="timeline-node section--1"><g><path id="node-undefined" class="node-bkg node-undefined" d="M0 63.05 v-58.05 q0,-5 5,-5 h180 q5,0 5,5 v63.05 H0 Z"></path><line class="node-line--1" x1="0" y1="68.05" x2="190" y2="68.05"></line></g><g transform="translate(95, 10)"><text dy="1em" alignment-baseline="middle" dominant-baseline="middle" text-anchor="middle"><tspan x="0" dy="1em">1920</tspan></text></g></g></g><g class="lineWrapper"><line x1="195" y1="118.05" x2="195" y2="401.3000007629395" stroke-width="2" stroke="black" marker-end="url(#arrowhead)" stroke-dasharray="5,5"></line></g><g class="eventWrapper" transform="translate(100, 250)"><g class="timeline-node section--1"><g><path id="node-undefined" class="node-bkg node-undefined" d="M0 60.65000228881836 v-55.65000228881836 q0,-5 5,-5 h180 q5,0 5,5 v60.65000228881836 H0 Z"></path><line class="node-line--1" x1="0" y1="65.65000228881836" x2="190" y2="65.65000228881836"></line></g><g transform="translate(95, 10)"><text dy="1em" alignment-baseline="middle" dominant-baseline="middle" text-anchor="middle"><tspan x="0" dy="1em">First   commercial</tspan><tspan x="0" dy="1.1em">radio   station   (KDKA)</tspan></text></g></g></g><g class="taskWrapper" transform="translate(300, 50)"><g class="timeline-node section-0"><g><path id="node-undefined" class="node-bkg node-undefined" d="M0 63.05 v-58.05 q0,-5 5,-5 h180 q5,0 5,5 v63.05 H0 Z"></path><line class="node-line-0" x1="0" y1="68.05" x2="190" y2="68.05"></line></g><g transform="translate(95, 10)"><text dy="1em" alignment-baseline="middle" dominant-baseline="middle" text-anchor="middle"><tspan x="0" dy="1em">1940s</tspan></text></g></g></g><g class="lineWrapper"><line x1="395" y1="118.05" x2="395" y2="401.3000007629395" stroke-width="2" stroke="black" marker-end="url(#arrowhead)" stroke-dasharray="5,5"></line></g><g class="eventWrapper" transform="translate(300, 250)"><g class="timeline-node section-0"><g><path id="node-undefined" class="node-bkg node-undefined" d="M0 78.25000076293945 v-73.25000076293945 q0,-5 5,-5 h180 q5,0 5,5 v78.25000076293945 H0 Z"></path><line class="node-line-0" x1="0" y1="83.25000076293945" x2="190" y2="83.25000076293945"></line></g><g transform="translate(95, 10)"><text dy="1em" alignment-baseline="middle" dominant-baseline="middle" text-anchor="middle"><tspan x="0" dy="1em">Reel-to-reel</tspan><tspan x="0" dy="1.1em">magnetic   tape</tspan><tspan x="0" dy="1.1em">introduced</tspan></text></g></g></g><g class="taskWrapper" transform="translate(500, 50)"><g class="timeline-node section-1"><g><path id="node-undefined" class="node-bkg node-undefined" d="M0 63.05 v-58.05 q0,-5 5,-5 h180 q5,0 5,5 v63.05 H0 Z"></path><line class="node-line-1" x1="0" y1="68.05" x2="190" y2="68.05"></line></g><g transform="translate(95, 10)"><text dy="1em" alignment-baseline="middle" dominant-baseline="middle" text-anchor="middle"><tspan x="0" dy="1em">1963</tspan></text></g></g></g><g class="lineWrapper"><line x1="595" y1="118.05" x2="595" y2="401.3000007629395" stroke-width="2" stroke="black" marker-end="url(#arrowhead)" stroke-dasharray="5,5"></line></g><g class="eventWrapper" transform="translate(500, 250)"><g class="timeline-node section-1"><g><path id="node-undefined" class="node-bkg node-undefined" d="M0 60.65000228881836 v-55.65000228881836 q0,-5 5,-5 h180 q5,0 5,5 v60.65000228881836 H0 Z"></path><line class="node-line-1" x1="0" y1="65.65000228881836" x2="190" y2="65.65000228881836"></line></g><g transform="translate(95, 10)"><text dy="1em" alignment-baseline="middle" dominant-baseline="middle" text-anchor="middle"><tspan x="0" dy="1em">Compact   cassette</tspan><tspan x="0" dy="1.1em">released   by   Philips</tspan></text></g></g></g><g class="taskWrapper" transform="translate(700, 50)"><g class="timeline-node section-2"><g><path id="node-undefined" class="node-bkg node-undefined" d="M0 63.05 v-58.05 q0,-5 5,-5 h180 q5,0 5,5 v63.05 H0 Z"></path><line class="node-line-2" x1="0" y1="68.05" x2="190" y2="68.05"></line></g><g transform="translate(95, 10)"><text dy="1em" alignment-baseline="middle" dominant-baseline="middle" text-anchor="middle"><tspan x="0" dy="1em">1979</tspan></text></g></g></g><g class="lineWrapper"><line x1="795" y1="118.05" x2="795" y2="401.3000007629395" stroke-width="2" stroke="black" marker-end="url(#arrowhead)" stroke-dasharray="5,5"></line></g><g class="eventWrapper" transform="translate(700, 250)"><g class="timeline-node section-2"><g><path id="node-undefined" class="node-bkg node-undefined" d="M0 78.25000076293945 v-73.25000076293945 q0,-5 5,-5 h180 q5,0 5,5 v78.25000076293945 H0 Z"></path><line class="node-line-2" x1="0" y1="83.25000076293945" x2="190" y2="83.25000076293945"></line></g><g transform="translate(95, 10)"><text dy="1em" alignment-baseline="middle" dominant-baseline="middle" text-anchor="middle"><tspan x="0" dy="1em">Sony   Walkman</tspan><tspan x="0" dy="1.1em">popularizes   portable</tspan><tspan x="0" dy="1.1em">music</tspan></text></g></g></g><g class="taskWrapper" transform="translate(900, 50)"><g class="timeline-node section-3"><g><path id="node-undefined" class="node-bkg node-undefined" d="M0 63.05 v-58.05 q0,-5 5,-5 h180 q5,0 5,5 v63.05 H0 Z"></path><line class="node-line-3" x1="0" y1="68.05" x2="190" y2="68.05"></line></g><g transform="translate(95, 10)"><text dy="1em" alignment-baseline="middle" dominant-baseline="middle" text-anchor="middle"><tspan x="0" dy="1em">1982</tspan></text></g></g></g><g class="lineWrapper"><line x1="995" y1="118.05" x2="995" y2="401.3000007629395" stroke-width="2" stroke="black" marker-end="url(#arrowhead)" stroke-dasharray="5,5"></line></g><g class="eventWrapper" transform="translate(900, 250)"><g class="timeline-node section-3"><g><path id="node-undefined" class="node-bkg node-undefined" d="M0 78.25000076293945 v-73.25000076293945 q0,-5 5,-5 h180 q5,0 5,5 v78.25000076293945 H0 Z"></path><line class="node-line-3" x1="0" y1="83.25000076293945" x2="190" y2="83.25000076293945"></line></g><g transform="translate(95, 10)"><text dy="1em" alignment-baseline="middle" dominant-baseline="middle" text-anchor="middle"><tspan x="0" dy="1em">Compact   Disc   (CD)</tspan><tspan x="0" dy="1.1em">brings   digital   audio</tspan><tspan x="0" dy="1.1em">mainstream</tspan></text></g></g></g><g class="taskWrapper" transform="translate(1100, 50)"><g class="timeline-node section-4"><g><path id="node-undefined" class="node-bkg node-undefined" d="M0 63.05 v-58.05 q0,-5 5,-5 h180 q5,0 5,5 v63.05 H0 Z"></path><line class="node-line-4" x1="0" y1="68.05" x2="190" y2="68.05"></line></g><g transform="translate(95, 10)"><text dy="1em" alignment-baseline="middle" dominant-baseline="middle" text-anchor="middle"><tspan x="0" dy="1em">1993</tspan></text></g></g></g><g class="lineWrapper"><line x1="1195" y1="118.05" x2="1195" y2="401.3000007629395" stroke-width="2" stroke="black" marker-end="url(#arrowhead)" stroke-dasharray="5,5"></line></g><g class="eventWrapper" transform="translate(1100, 250)"><g class="timeline-node section-4"><g><path id="node-undefined" class="node-bkg node-undefined" d="M0 78.25000076293945 v-73.25000076293945 q0,-5 5,-5 h180 q5,0 5,5 v78.25000076293945 H0 Z"></path><line class="node-line-4" x1="0" y1="83.25000076293945" x2="190" y2="83.25000076293945"></line></g><g transform="translate(95, 10)"><text dy="1em" alignment-baseline="middle" dominant-baseline="middle" text-anchor="middle"><tspan x="0" dy="1em">MP3   standard</tspan><tspan x="0" dy="1.1em">finalized   (MPEG-1</tspan><tspan x="0" dy="1.1em">Layer   III)</tspan></text></g></g></g><g class="taskWrapper" transform="translate(1300, 50)"><g class="timeline-node section-5"><g><path id="node-undefined" class="node-bkg node-undefined" d="M0 63.05 v-58.05 q0,-5 5,-5 h180 q5,0 5,5 v63.05 H0 Z"></path><line class="node-line-5" x1="0" y1="68.05" x2="190" y2="68.05"></line></g><g transform="translate(95, 10)"><text dy="1em" alignment-baseline="middle" dominant-baseline="middle" text-anchor="middle"><tspan x="0" dy="1em">1999</tspan></text></g></g></g><g class="lineWrapper"><line x1="1395" y1="118.05" x2="1395" y2="401.3000007629395" stroke-width="2" stroke="black" marker-end="url(#arrowhead)" stroke-dasharray="5,5"></line></g><g class="eventWrapper" transform="translate(1300, 250)"><g class="timeline-node section-5"><g><path id="node-undefined" class="node-bkg node-undefined" d="M0 60.65000228881836 v-55.65000228881836 q0,-5 5,-5 h180 q5,0 5,5 v60.65000228881836 H0 Z"></path><line class="node-line-5" x1="0" y1="65.65000228881836" x2="190" y2="65.65000228881836"></line></g><g transform="translate(95, 10)"><text dy="1em" alignment-baseline="middle" dominant-baseline="middle" text-anchor="middle"><tspan x="0" dy="1em">Napster   and   digital</tspan><tspan x="0" dy="1.1em">file   sharing   explode</tspan></text></g></g></g><g class="taskWrapper" transform="translate(1500, 50)"><g class="timeline-node section-6"><g><path id="node-undefined" class="node-bkg node-undefined" d="M0 63.05 v-58.05 q0,-5 5,-5 h180 q5,0 5,5 v63.05 H0 Z"></path><line class="node-line-6" x1="0" y1="68.05" x2="190" y2="68.05"></line></g><g transform="translate(95, 10)"><text dy="1em" alignment-baseline="middle" dominant-baseline="middle" text-anchor="middle"><tspan x="0" dy="1em">2001</tspan></text></g></g></g><g class="lineWrapper"><line x1="1595" y1="118.05" x2="1595" y2="401.3000007629395" stroke-width="2" stroke="black" marker-end="url(#arrowhead)" stroke-dasharray="5,5"></line></g><g class="eventWrapper" transform="translate(1500, 250)"><g class="timeline-node section-6"><g><path id="node-undefined" class="node-bkg node-undefined" d="M0 60.65000228881836 v-55.65000228881836 q0,-5 5,-5 h180 q5,0 5,5 v60.65000228881836 H0 Z"></path><line class="node-line-6" x1="0" y1="65.65000228881836" x2="190" y2="65.65000228881836"></line></g><g transform="translate(95, 10)"><text dy="1em" alignment-baseline="middle" dominant-baseline="middle" text-anchor="middle"><tspan x="0" dy="1em">Apple   introduces</tspan><tspan x="0" dy="1.1em">iPod   +   iTunes</tspan></text></g></g></g><g class="taskWrapper" transform="translate(1700, 50)"><g class="timeline-node section-7"><g><path id="node-undefined" class="node-bkg node-undefined" d="M0 63.05 v-58.05 q0,-5 5,-5 h180 q5,0 5,5 v63.05 H0 Z"></path><line class="node-line-7" x1="0" y1="68.05" x2="190" y2="68.05"></line></g><g transform="translate(95, 10)"><text dy="1em" alignment-baseline="middle" dominant-baseline="middle" text-anchor="middle"><tspan x="0" dy="1em">2008</tspan></text></g></g></g><g class="lineWrapper"><line x1="1795" y1="118.05" x2="1795" y2="401.3000007629395" stroke-width="2" stroke="black" marker-end="url(#arrowhead)" stroke-dasharray="5,5"></line></g><g class="eventWrapper" transform="translate(1700, 250)"><g class="timeline-node section-7"><g><path id="node-undefined" class="node-bkg node-undefined" d="M0 60.65000228881836 v-55.65000228881836 q0,-5 5,-5 h180 q5,0 5,5 v60.65000228881836 H0 Z"></path><line class="node-line-7" x1="0" y1="65.65000228881836" x2="190" y2="65.65000228881836"></line></g><g transform="translate(95, 10)"><text dy="1em" alignment-baseline="middle" dominant-baseline="middle" text-anchor="middle"><tspan x="0" dy="1em">Spotify   launches</tspan><tspan x="0" dy="1.1em">music   streaming</tspan></text></g></g></g><g class="taskWrapper" transform="translate(1900, 50)"><g class="timeline-node section-8"><g><path id="node-undefined" class="node-bkg node-undefined" d="M0 63.05 v-58.05 q0,-5 5,-5 h180 q5,0 5,5 v63.05 H0 Z"></path><line class="node-line-8" x1="0" y1="68.05" x2="190" y2="68.05"></line></g><g transform="translate(95, 10)"><text dy="1em" alignment-baseline="middle" dominant-baseline="middle" text-anchor="middle"><tspan x="0" dy="1em">2010s</tspan></text></g></g></g><g class="lineWrapper"><line x1="1995" y1="118.05" x2="1995" y2="401.3000007629395" stroke-width="2" stroke="black" marker-end="url(#arrowhead)" stroke-dasharray="5,5"></line></g><g class="eventWrapper" transform="translate(1900, 250)"><g class="timeline-node section-8"><g><path id="node-undefined" class="node-bkg node-undefined" d="M0 78.25000076293945 v-73.25000076293945 q0,-5 5,-5 h180 q5,0 5,5 v78.25000076293945 H0 Z"></path><line class="node-line-8" x1="0" y1="83.25000076293945" x2="190" y2="83.25000076293945"></line></g><g transform="translate(95, 10)"><text dy="1em" alignment-baseline="middle" dominant-baseline="middle" text-anchor="middle"><tspan x="0" dy="1em">AAC,   Opus   codecs</tspan><tspan x="0" dy="1.1em">and   adaptive</tspan><tspan x="0" dy="1.1em">streaming</tspan></text></g></g></g><g class="taskWrapper" transform="translate(2100, 50)"><g class="timeline-node section-9"><g><path id="node-undefined" class="node-bkg node-undefined" d="M0 63.05 v-58.05 q0,-5 5,-5 h180 q5,0 5,5 v63.05 H0 Z"></path><line class="node-line-9" x1="0" y1="68.05" x2="190" y2="68.05"></line></g><g transform="translate(95, 10)"><text dy="1em" alignment-baseline="middle" dominant-baseline="middle" text-anchor="middle"><tspan x="0" dy="1em">2020s</tspan></text></g></g></g><g class="lineWrapper"><line x1="2195" y1="118.05" x2="2195" y2="401.3000007629395" stroke-width="2" stroke="black" marker-end="url(#arrowhead)" stroke-dasharray="5,5"></line></g><g class="eventWrapper" transform="translate(2100, 250)"><g class="timeline-node section-9"><g><path id="node-undefined" class="node-bkg node-undefined" d="M0 78.25000076293945 v-73.25000076293945 q0,-5 5,-5 h180 q5,0 5,5 v78.25000076293945 H0 Z"></path><line class="node-line-9" x1="0" y1="83.25000076293945" x2="190" y2="83.25000076293945"></line></g><g transform="translate(95, 10)"><text dy="1em" alignment-baseline="middle" dominant-baseline="middle" text-anchor="middle"><tspan x="0" dy="1em">Personalized</tspan><tspan x="0" dy="1.1em">streaming,   spatial</tspan><tspan x="0" dy="1.1em">audio,   Dolby   Atmos</tspan></text></g></g></g><text x="1045" font-size="4ex" font-weight="bold" y="20">Evolution of Audio Compression &amp; Personal Audio</text><g class="lineWrapper"><line x1="50" y1="168.05" x2="2340" y2="168.05" stroke-width="4" stroke="black" marker-end="url(#arrowhead)"></line></g></g></svg>